<svg width="18" height="18" viewBox="0 0 18 18" fill="none" xmlns="http://www.w3.org/2000/svg">
<path d="M6.53731 18L6.17911 15.12C5.98508 15.045 5.80239 14.955 5.63105 14.85C5.4597 14.745 5.29164 14.6325 5.12687 14.5125L2.46269 15.6375L0 11.3625L2.30597 9.6075C2.29104 9.5025 2.28358 9.4014 2.28358 9.3042V8.6967C2.28358 8.5989 2.29104 8.4975 2.30597 8.3925L0 6.6375L2.46269 2.3625L5.12687 3.4875C5.29105 3.3675 5.46269 3.255 5.64179 3.15C5.8209 3.045 6 2.955 6.17911 2.88L6.53731 0H11.4627L11.8209 2.88C12.0149 2.955 12.1979 3.045 12.3699 3.15C12.5418 3.255 12.7096 3.3675 12.8731 3.4875L15.5373 2.3625L18 6.6375L15.694 8.3925C15.709 8.4975 15.7164 8.5989 15.7164 8.6967V9.3033C15.7164 9.4011 15.7015 9.5025 15.6716 9.6075L17.9776 11.3625L15.5149 15.6375L12.8731 14.5125C12.709 14.6325 12.5373 14.745 12.3582 14.85C12.1791 14.955 12 15.045 11.8209 15.12L11.4627 18H6.53731ZM8.10448 16.2H9.87314L10.1866 13.815C10.6493 13.695 11.0785 13.5189 11.4743 13.2867C11.8702 13.0545 12.2319 12.7731 12.5597 12.4425L14.7761 13.365L15.6493 11.835L13.7239 10.3725C13.7985 10.1625 13.8507 9.9414 13.8806 9.7092C13.9104 9.477 13.9254 9.2406 13.9254 9C13.9254 8.7594 13.9104 8.5233 13.8806 8.2917C13.8507 8.0601 13.7985 7.8387 13.7239 7.6275L15.6493 6.165L14.7761 4.635L12.5597 5.58C12.2313 5.235 11.8696 4.9464 11.4743 4.7142C11.0791 4.482 10.6499 4.3056 10.1866 4.185L9.89552 1.8H8.12687L7.81343 4.185C7.35075 4.305 6.92179 4.4814 6.52657 4.7142C6.13134 4.947 5.76925 5.2281 5.4403 5.5575L3.22388 4.635L2.35075 6.165L4.27612 7.605C4.20149 7.83 4.14925 8.055 4.1194 8.28C4.08955 8.505 4.07463 8.745 4.07463 9C4.07463 9.24 4.08955 9.4725 4.1194 9.6975C4.14925 9.9225 4.20149 10.1475 4.27612 10.3725L2.35075 11.835L3.22388 13.365L5.4403 12.42C5.76866 12.765 6.13075 13.0539 6.52657 13.2867C6.92239 13.5195 7.35134 13.6956 7.81343 13.815L8.10448 16.2ZM9.04478 12.15C9.91045 12.15 10.6493 11.8425 11.2612 11.2275C11.8731 10.6125 12.1791 9.87 12.1791 9C12.1791 8.13 11.8731 7.3875 11.2612 6.7725C10.6493 6.1575 9.91045 5.85 9.04478 5.85C8.16418 5.85 7.42149 6.1575 6.81672 6.7725C6.21194 7.3875 5.90985 8.13 5.91045 9C5.91105 9.87 6.21343 10.6125 6.81761 11.2275C7.42179 11.8425 8.16418 12.15 9.04478 12.15Z" fill="#735A3E"/>
</svg>
